<?xml version="1.0" encoding="utf-8"?>
<!-- Generator: Adobe Illustrator 16.0.3, SVG Export Plug-In . SVG Version: 6.00 Build 0)  -->
<!DOCTYPE svg PUBLIC "-//W3C//DTD SVG 1.1//EN" "http://www.w3.org/Graphics/SVG/1.1/DTD/svg11.dtd">
<svg version="1.1" id="Calque_3" xmlns="http://www.w3.org/2000/svg" xmlns:xlink="http://www.w3.org/1999/xlink" x="0px" y="0px"
	 width="450px" height="240px" viewBox="0 0 450 240" enable-background="new 0 0 450 240" xml:space="preserve">
<g>
	<path fill-rule="evenodd" clip-rule="evenodd" fill="#7D7D7D" d="M29.03,136.203c-0.86-0.402-1.721-0.805-2.582-1.207
		c0.273-0.498,0.564-0.986,0.816-1.494c1.643-3.313,0.917-2.939,4.688-2.048c1.307,0.308,2.625,0.571,3.938,0.855
		c-1.079-1.879-2.247-3.48-3.537-4.977c-0.837-0.971-0.989-1.787-0.286-2.931c1.056-1.717,1.928-3.548,2.878-5.331
		c-0.083-0.094-0.165-0.188-0.247-0.282c-1.785,0.837-3.588,1.635-5.347,2.521c-0.968,0.487-1.656,0.428-2.321-0.51
		c-0.88-1.242-1.858-2.416-2.83-3.59c-0.341-0.411-0.787-0.737-1.427-1.324c0,0.792-0.037,1.217,0.007,1.631
		c0.159,1.514,0.447,3.02,0.481,4.533c0.017,0.759-0.176,1.927-0.678,2.223c-1.962,1.155-4.086,2.037-6.15,3.021
		c-2.897-2.902-3.544-8.103-1.269-11.414c2.26-3.29,5.338-5.727,8.72-7.793c0.87,1.059,1.763,2.099,2.605,3.179
		c1.499,1.921,2.966,3.866,4.446,5.802c0.118-0.044,0.235-0.087,0.352-0.131c0-0.787,0.028-1.575-0.005-2.359
		c-0.15-3.512-0.318-7.023-0.48-10.535c4.181-1.625,8.362-3.251,12.544-4.877c0.206,2.417,0.279,4.854,0.663,7.243
		c0.279,1.738-0.538,2.3-1.919,2.88c-2.389,1.001-4.689,2.216-7.429,3.533c2.062,0.596,3.683,1.063,5.304,1.531
		c-1.786,3.944,1.187,9.57,5.682,11.765c0.117,0.119,0.235,0.239,0.353,0.358c3.127,1.693,6.255,3.388,9.383,5.079
		c0.348,3.773,2.038,6.082,5.233,6.79c1.796,0.399,3.658,0.618,5.498,0.674c3.708,0.11,7.422,0.055,11.133,0.066
		c7.044,1.794,14.052,3.76,21.146,5.331c5.559,1.232,11.215,2.04,16.845,2.922c5.257,0.823,10.529,1.553,15.809,2.216
		c5.327,0.667,10.669,1.208,16.007,1.797c4.295,0.475,8.586,0.984,12.886,1.396c3.74,0.357,7.491,0.6,11.236,0.896
		c4.642,0.369,9.283,0.746,13.925,1.107c1.659,0.129,3.32,0.252,4.983,0.327c2.618,0.119,5.238,0.197,7.858,0.292
		c5.331,0.188,10.664,0.376,15.995,0.563c2.949,0.104,5.899,0.271,8.849,0.301c11.742,0.118,23.485,0.235,35.228,0.268
		c5.485,0.016,10.973-0.124,16.456-0.271c5.094-0.138,10.187-0.346,15.276-0.586c5.274-0.25,10.55-0.529,15.819-0.876
		c6.354-0.418,12.71-0.866,19.055-1.409c5.583-0.479,11.151-1.109,16.728-1.668c4.018-0.401,8.041-0.755,12.054-1.205
		c4.527-0.509,9.045-1.11,13.567-1.648c3.533-0.42,7.087-0.697,10.6-1.23c6.01-0.91,12.041-1.761,17.981-3.021
		c8.366-1.774,16.706-3.715,24.964-5.927c7.357-1.972,14.482-4.692,21.381-7.96c2.055-0.976,4.1-1.974,6.343-2.728
		c-1.121,0.85-2.208,1.747-3.366,2.542c-5.726,3.929-11.957,6.883-18.401,9.404c-7.859,3.074-15.941,5.472-24.176,7.259
		c-8.635,1.874-17.335,3.475-26.033,5.041c-6.545,1.178-13.123,2.174-19.703,3.133c-4.139,0.604-8.309,0.998-12.466,1.474
		c-4.911,0.562-9.818,1.141-14.735,1.651c-2.693,0.279-5.404,0.425-8.106,0.642c-4.451,0.358-8.9,0.728-13.352,1.088
		c-1.516,0.123-3.032,0.273-4.55,0.352c-4.23,0.216-8.462,0.411-12.693,0.595c-6.609,0.287-13.219,0.605-19.83,0.823
		c-7.335,0.242-14.671,0.456-22.01,0.557c-11.833,0.164-23.667,0.306-35.501,0.295c-6.286-0.007-12.572-0.331-18.857-0.556
		c-4.187-0.149-8.373-0.334-12.554-0.575c-5.745-0.333-11.485-0.747-17.228-1.104c-3.61-0.223-7.227-0.349-10.834-0.609
		c-4.358-0.314-8.71-0.734-13.066-1.09c-2.7-0.22-5.407-0.369-8.104-0.615c-3.548-0.327-7.092-0.702-10.635-1.086
		c-3.538-0.384-7.085-0.706-10.604-1.224c-6.959-1.022-13.925-2.032-20.844-3.287c-7.953-1.444-15.858-3.144-23.783-4.741
		c-1.206-0.243-2.401-0.538-3.601-0.812c0.589-0.753,1.178-1.508,1.766-2.263c-0.071-0.112-0.141-0.228-0.212-0.342
		c-1.319,0.28-2.651,0.506-3.951,0.856c-1.095,0.295-1.632-0.096-2.093-1.084c-0.641-1.375-1.465-2.665-2.211-3.993
		c-0.442,0.918-0.515,1.746-0.626,2.568c-0.114,0.837-0.267,1.668-0.401,2.503c-1.074-0.31-2.149-0.62-3.223-0.93
		c0.481-0.258,0.963-0.513,1.77-0.943c-1.036-0.375-1.725-0.644-2.427-0.873c-1.995-0.65-4.018-1.224-5.975-1.969
		c-0.475-0.181-1.025-0.884-1.062-1.381c-0.195-2.755-0.237-5.521-0.343-8.28c-0.013-0.347-0.1-0.689-0.201-1.354
		c-0.437,0.604-0.699,0.927-0.916,1.274c-1.378,2.228-2.783,4.439-4.095,6.704c-0.43,0.743-0.848,0.854-1.615,0.604
		c-2.264-0.737-4.543-1.435-6.835-2.079C30.089,136.016,29.54,136.177,29.03,136.203z"/>
	<path fill-rule="evenodd" clip-rule="evenodd" d="M213.422,125.822c0,1.763,0,3.233,0,4.899c7.989,0,15.93,0,23.95,0
		c0,2.749,0,5.301,0,7.949c-11.029,0-21.991,0-33.064,0c0-10.815,0-21.621,0-32.59c0.605,0,1.164,0,1.722,0
		c13.756,0,27.513,0.021,41.269-0.034c1.301-0.007,2.057,0.431,2.781,1.436c2.755,3.815,5.58,7.577,8.43,11.426
		c2.935-4.093,5.804-8.111,8.707-12.104c0.237-0.327,0.701-0.688,1.063-0.694c3.721-0.05,7.44-0.03,11.563-0.03
		c-1.213,1.597-2.229,2.963-3.276,4.307c-4.084,5.237-8.199,10.449-12.238,15.723c-0.47,0.613-0.739,1.531-0.759,2.317
		c-0.081,3.38-0.035,6.763-0.035,10.24c-3.242,0-6.372,0-9.684,0c-0.021-0.423-0.062-0.879-0.063-1.332
		c-0.006-2.819-0.094-5.641,0.034-8.452c0.065-1.437-0.576-2.395-1.396-3.394c-2.336-2.84-4.633-5.713-6.958-8.562
		c-2.672-3.272-5.359-6.531-8.245-10.047c0,2.533,0,4.75,0,7.153c-7.967,0-15.812,0-23.753,0c0,1.5,0,2.814,0,4.317
		c7.444,0,14.908,0,22.459,0c0,2.549,0,4.916,0,7.472C228.479,125.822,221.016,125.822,213.422,125.822z"/>
	<path fill-rule="evenodd" clip-rule="evenodd" d="M164.927,127.913c3.012,0,5.818,0,8.713,0c0.15,0.519,0.342,1.038,0.448,1.574
		c0.241,1.231,1.099,1.741,2.214,1.799c2.753,0.144,5.51,0.271,8.267,0.286c1.943,0.01,3.889-0.15,5.83-0.282
		c1.26-0.086,2.065-0.976,1.999-2.448c-0.042-0.938-0.168-2.062-1.576-2.14c-0.511-0.027-1.013-0.236-1.523-0.257
		c-5.176-0.207-10.355-0.35-15.528-0.61c-1.444-0.073-2.917-0.327-4.297-0.754c-2.951-0.913-4.086-3.345-4.201-6.126
		c-0.104-2.534,0.103-5.122,0.516-7.631c0.629-3.823,3.153-5.036,6.308-5.188c6.28-0.301,12.578-0.313,18.867-0.295
		c1.668,0.005,3.374,0.423,4.994,0.888c2.767,0.795,3.925,2.972,4.2,5.65c0.14,1.36,0.025,2.748,0.025,4.217
		c-2.971,0-5.812,0-8.723,0c-0.125-0.464-0.293-0.942-0.375-1.436c-0.191-1.163-0.985-1.565-2.021-1.614
		c-2.516-0.118-5.033-0.264-7.551-0.277c-1.799-0.01-3.602,0.149-5.399,0.284c-1.181,0.089-2.02,1.053-1.998,2.182
		c0.023,1.153,0.972,2.046,2.197,2.096c4.605,0.186,9.215,0.289,13.81,0.608c2.383,0.166,4.781,0.551,7.094,1.143
		c2.081,0.532,3.262,2.157,3.68,4.28c0.733,3.73,0.802,7.448-0.527,11.06c-0.924,2.51-3.067,3.56-5.536,3.803
		c-2.549,0.253-5.124,0.283-7.688,0.313c-4.032,0.047-8.068,0.113-12.095-0.031c-2.012-0.071-4.072-0.375-5.996-0.956
		c-2.841-0.861-3.891-3.233-4.109-5.998C164.84,130.731,164.927,129.396,164.927,127.913z"/>
	<path fill-rule="evenodd" clip-rule="evenodd" d="M158.765,125.968c3.263,1.148,3.977,2.78,3.907,5.678
		c-0.056,2.306,0.221,4.618,0.357,7.026c-3.193,0-6.129,0-9.132,0c-0.146-1.501-0.33-2.992-0.43-4.486
		c-0.196-2.927-0.708-3.604-3.648-3.697c-4.056-0.128-8.118-0.037-12.176-0.041c-0.666,0-1.33,0-2.192,0c0,2.764,0,5.452,0,8.225
		c-3.23,0-6.264,0-9.405,0c0-10.809,0-21.613,0-32.519c0.484-0.025,0.946-0.068,1.409-0.068c8.596-0.005,17.191-0.054,25.786,0.032
		c1.947,0.02,3.934,0.342,5.824,0.828c2.185,0.562,3.224,2.303,3.644,4.454c0.671,3.437,0.666,6.881,0.108,10.319
		C162.454,123.967,161.095,125.396,158.765,125.968z M135.451,122.131c0.595,0,1.063,0,1.531,0
		c3.963-0.001,7.929-0.096,11.888,0.023c4.815,0.144,5.01-0.852,4.874-5.055c-0.006-0.192,0.071-0.445-0.023-0.563
		c-0.504-0.632-0.943-1.547-1.604-1.767c-1.089-0.364-2.329-0.35-3.508-0.36c-3.866-0.037-7.733-0.014-11.601-0.013
		c-0.502,0-1.003,0-1.556,0C135.451,117.049,135.451,119.476,135.451,122.131z"/>
	<path fill-rule="evenodd" clip-rule="evenodd" d="M90.515,106.126c10.948,0,21.782,0,32.733,0c0,2.632,0,5.223,0,7.954
		c-7.851,0-15.662,0-23.577,0c0,1.451,0,2.765,0,4.272c7.432,0,14.896,0,22.454,0c0,2.553,0,4.918,0,7.477
		c-7.468,0-14.931,0-22.474,0c0,1.698,0,3.202,0,4.841c7.946,0,15.854,0,23.879,0c0,2.72,0,5.313,0,7.998
		c-10.967,0-21.932,0-33.016,0C90.515,127.876,90.515,117.068,90.515,106.126z"/>
	<path fill-rule="evenodd" clip-rule="evenodd" d="M328.777,125.972c0.752,2.9,0.403,5.729-0.458,8.511
		c-0.599,1.938-2.016,3.237-3.927,3.654c-2.244,0.49-4.561,0.733-6.86,0.887c-3.034,0.204-6.088,0.372-9.124,0.273
		c-3.682-0.122-7.369-0.407-11.024-0.86c-3.698-0.46-5.911-2.979-6.028-6.706c-0.171-5.428-0.349-10.859-0.238-16.284
		c0.051-2.482,0.242-5.098,2.329-7.056c1.865-1.748,4.204-2.175,6.517-2.261c6.427-0.238,12.862-0.317,19.293-0.288
		c2.342,0.011,4.757,0.337,6.658,1.961c0.723,0.618,1.562,1.431,1.751,2.285c0.567,2.557,0.841,5.18,1.253,7.937
		c-3.475,0-6.505,0-9.54,0c-0.057-0.068-0.158-0.132-0.167-0.209c-0.353-3.125-0.448-3.478-3.692-3.621
		c-3.983-0.177-7.995,0.007-11.983,0.232c-2.043,0.115-2.931,1.273-2.994,3.559c-0.086,3.071-0.092,6.148,0.003,9.219
		c0.068,2.192,1.568,3.48,3.998,3.514c3.915,0.052,7.835,0.138,11.743-0.031c2.71-0.116,2.857-0.852,3.414-3.467
		c0.078-0.362,0.012-0.755,0.012-1.248C322.769,125.972,325.744,125.972,328.777,125.972z"/>
	<path fill-rule="evenodd" clip-rule="evenodd" d="M30.804,104.042c0.162,3.512,0.33,7.023,0.48,10.535
		c0.033,0.784,0.005,1.572,0.005,2.359c-0.117,0.044-0.234,0.087-0.352,0.131c-1.48-1.936-2.948-3.881-4.446-5.802
		c-0.842-1.08-1.735-2.12-2.605-3.179c-0.982-1.411-1.961-2.825-2.948-4.234c-0.242-0.344-0.509-0.671-0.848-1.113
		c-5.282,2.19-10.6,4.395-15.917,6.601c-0.086-0.091-0.173-0.183-0.26-0.273c0.907-1.597,1.798-3.202,2.725-4.788
		c2.047-3.501,4.128-6.982,6.137-10.504c0.156-0.274-0.026-0.893-0.252-1.207c-3.018-4.203-6.072-8.38-9.115-12.566
		c-0.355-0.489-0.693-0.99-1.281-1.833c2.954,0.846,5.537,1.583,8.121,2.324c2.714,0.778,5.434,1.538,8.137,2.351
		c0.776,0.233,1.123-0.183,1.44-0.718c2.785-4.698,5.561-9.402,8.35-14.097c0.146-0.244,0.381-0.435,0.758-0.853
		c0.354,6.476,0.691,12.654,1.038,19.009c5.542,1.674,11.144,3.367,17.078,5.159c-5.695,2.43-11.119,4.744-16.245,6.931
		C30.804,100.37,30.804,102.205,30.804,104.042z"/>
	<path fill-rule="evenodd" clip-rule="evenodd" d="M423.012,106.079c-1.001,1.342-1.815,2.46-2.659,3.558
		c-4.161,5.409-8.263,10.863-12.544,16.175c-0.974,1.207-1.265,2.336-1.244,3.756c0.045,2.997,0.014,5.995,0.014,9.094
		c-3.166,0-6.196,0-9.362,0c-0.032-0.397-0.096-0.806-0.097-1.216c-0.01-2.148-0.19-4.318,0.041-6.44
		c0.29-2.639-0.698-4.569-2.357-6.506c-3.316-3.868-6.42-7.917-9.636-11.871c-1.488-1.828-3.039-3.604-4.547-5.416
		c-0.196-0.233-0.315-0.531-0.582-0.994c0.593-0.058,0.989-0.13,1.386-0.131c3.247-0.009,6.493-0.038,9.738,0.028
		c0.498,0.012,1.146,0.366,1.451,0.769c2.815,3.703,5.569,7.454,8.352,11.184c0.188,0.25,0.467,0.434,0.789,0.729
		c1.819-2.526,3.582-4.953,5.321-7.395c1.039-1.458,1.999-2.974,3.088-4.39c0.336-0.436,0.981-0.882,1.494-0.893
		C415.321,106.045,418.987,106.079,423.012,106.079z"/>
	<path fill-rule="evenodd" clip-rule="evenodd" d="M379.349,106.183c0,0.494,0,0.871,0,1.249c0,2.336,0,4.672,0,7.198
		c-4.281,0-8.494,0-12.843,0c0,8.088,0,15.989,0,24.011c-3.299,0-6.457,0-9.76,0c0-7.919,0-15.818,0-23.916
		c-4.445,0-8.754,0-13.15,0c0-2.945,0-5.69,0-8.542C355.454,106.183,367.306,106.183,379.349,106.183z"/>
	<path fill-rule="evenodd" clip-rule="evenodd" d="M77.247,139.085c-3.711-0.012-7.425,0.044-11.133-0.066
		c-1.84-0.056-3.702-0.274-5.498-0.674c-3.196-0.708-4.886-3.017-5.233-6.79c-0.118-2.309-0.235-4.619-0.358-7.034
		c3.275,0,6.306,0,9.576,0c0,0.536-0.001,1.084,0,1.634c0.008,3.244,0.29,3.835,3.443,4.17c2.324,0.246,4.729-0.057,7.074-0.322
		c1.459-0.165,2.104-1.241,2.096-2.752c-0.028-5.489-0.028-10.978,0.005-16.466c0.009-1.509,0.171-3.015,0.269-4.609
		c3.06,0,5.999,0,9.115,0c0.022,0.476,0.067,0.978,0.068,1.481c0.004,6.872,0.042,13.745-0.024,20.617
		c-0.017,1.689-0.23,3.41-0.613,5.055c-0.77,3.303-3.517,4.934-6.688,5.434C78.646,138.871,77.946,138.978,77.247,139.085z"/>
	<path fill-rule="evenodd" clip-rule="evenodd" d="M332.156,106.128c3.211,0,6.304,0,9.425,0c0,10.833,0,21.653,0,32.553
		c-3.251,0-6.281,0-9.425,0C332.156,127.865,332.156,117.072,332.156,106.128z"/>
	<path fill-rule="evenodd" clip-rule="evenodd" d="M46,126.476c-0.118-0.119-0.236-0.239-0.353-0.358
		c-0.28-3.348-0.549-6.694-0.862-10.037c-0.023-0.244-0.332-0.596-0.574-0.664c-1.404-0.394-2.829-0.716-4.246-1.063
		c-1.621-0.468-3.242-0.936-5.304-1.531c2.74-1.317,5.041-2.532,7.429-3.533c1.381-0.58,2.198-1.142,1.919-2.88
		c-0.383-2.389-0.457-4.826-0.663-7.243c0-0.567,0-1.136,0-2.09c0.638,0.696,1.046,1.141,1.455,1.586c1.618,2,3.234,4.001,4.852,6
		c0.478,0.097,1.046,0.41,1.418,0.254c2.216-0.922,4.384-1.957,6.574-2.942c0.62-0.28,1.259-0.514,2.237-0.908
		c-1.612,3.013-2.94,5.742-4.514,8.322c-0.715,1.17-0.53,1.86,0.252,2.806c1.916,2.31,3.74,4.694,5.427,7.305
		c-1.973-0.468-3.947-0.93-5.917-1.406c-1.001-0.243-1.986-0.605-3.001-0.724c-0.427-0.049-1.122,0.271-1.336,0.635
		c-1.554,2.639-3.015,5.33-4.507,8.003C46.198,126.165,46.096,126.319,46,126.476z"/>
	<path fill-rule="evenodd" clip-rule="evenodd" fill="#7D7D7D" d="M49.654,104.661c-1.618-1.999-3.234-4-4.852-6
		c4.848-1.368,9.646-2.965,14.557-4.054c8.112-1.799,16.28-3.365,24.456-4.855c7.473-1.362,14.976-2.582,22.489-3.699
		c5.539-0.822,11.115-1.405,16.68-2.044c6.083-0.697,12.171-1.344,18.26-1.985c0.843-0.088,1.704-0.013,2.567,0.163
		c-3.104,0.412-6.212,0.81-9.314,1.241c-4.704,0.653-9.412,1.28-14.104,2.008c-6.521,1.013-13.05,1.991-19.536,3.195
		c-12.068,2.24-24.105,4.714-35.649,8.963C59.879,99.556,54.83,102.283,49.654,104.661z"/>
	<path fill-rule="evenodd" clip-rule="evenodd" d="M29.03,136.203c0.51-0.026,1.059-0.188,1.525-0.057
		c2.292,0.645,4.571,1.342,6.835,2.079c0.767,0.25,1.185,0.14,1.615-0.604c1.312-2.265,2.717-4.477,4.095-6.704
		c0.216-0.348,0.479-0.67,0.916-1.274c0.102,0.664,0.188,1.007,0.201,1.354c0.106,2.76,0.148,5.525,0.343,8.28
		c0.036,0.497,0.586,1.2,1.062,1.381c1.958,0.745,3.98,1.318,5.975,1.969c0.702,0.229,1.392,0.498,2.427,0.873
		c-0.807,0.431-1.289,0.686-1.77,0.943c-2.142,0.853-4.276,1.726-6.429,2.551c-0.774,0.298-1.07,0.757-1.021,1.602
		c0.143,2.47,0.214,4.941,0.303,7.413c0.022,0.608,0.004,1.219,0.004,1.828c-0.115,0.062-0.231,0.122-0.346,0.186
		c-0.656-0.902-1.311-1.807-1.971-2.706c-1.145-1.559-2.35-3.074-3.416-4.686c-0.531-0.801-1.012-0.722-1.755-0.413
		c-2.593,1.082-5.209,2.104-8.187,3.298c0.29-0.63,0.401-0.95,0.573-1.233c1.39-2.3,2.805-4.584,4.181-6.892
		c0.367-0.616,0.732-1.168,0.084-1.997C32.447,141.058,30.767,138.607,29.03,136.203z"/>
	<path fill-rule="evenodd" clip-rule="evenodd" d="M16.435,127.294c2.064-0.983,4.188-1.865,6.15-3.021
		c0.502-0.296,0.694-1.464,0.678-2.223c-0.034-1.514-0.322-3.02-0.481-4.533c-0.044-0.414-0.007-0.839-0.007-1.631
		c0.641,0.587,1.086,0.913,1.427,1.324c0.972,1.174,1.95,2.348,2.83,3.59c0.665,0.938,1.353,0.997,2.321,0.51
		c1.759-0.887,3.562-1.685,5.347-2.521c0.082,0.094,0.164,0.188,0.247,0.282c-0.951,1.783-1.822,3.614-2.878,5.331
		c-0.703,1.144-0.551,1.96,0.286,2.931c1.29,1.496,2.458,3.098,3.537,4.977c-1.313-0.284-2.63-0.548-3.938-0.855
		c-3.772-0.892-3.045-1.265-4.688,2.048c-0.252,0.508-0.543,0.996-0.816,1.494c-0.518,0.882-1.035,1.767-1.552,2.65
		c-0.094-0.031-0.188-0.062-0.282-0.092c-0.158-1.306-0.316-2.613-0.475-3.919c-0.086-1.179-0.123-2.363-0.294-3.528
		c-0.045-0.309-0.463-0.726-0.782-0.807c-2.017-0.514-4.054-0.945-6.083-1.404C16.798,127.696,16.616,127.495,16.435,127.294z"/>
	<path fill-rule="evenodd" clip-rule="evenodd" d="M55.476,145.373c0.135-0.835,0.288-1.666,0.401-2.503
		c0.111-0.822,0.184-1.65,0.626-2.568c0.746,1.328,1.57,2.618,2.211,3.993c0.46,0.988,0.998,1.379,2.093,1.084
		c1.299-0.351,2.632-0.576,3.951-0.856c0.071,0.114,0.142,0.229,0.212,0.342c-0.588,0.755-1.177,1.51-1.766,2.263
		c-0.474,0.581-1.036,1.116-1.389,1.765c-0.2,0.364-0.212,0.986-0.039,1.372c0.728,1.621,1.557,3.197,2.124,5.042
		c-1.431-0.711-2.903-1.351-4.279-2.155c-1.042-0.609-1.553-0.081-2.125,0.633c-0.938,1.17-1.904,2.319-3.211,3.369
		c0.141-1.447,0.146-2.924,0.461-4.332c0.313-1.39-0.052-2.269-1.289-2.873c-1.26-0.616-2.509-1.255-3.76-2.217
		c1.427-0.315,2.85-0.647,4.282-0.943C54.79,146.621,55.609,146.516,55.476,145.373z"/>
	<path fill-rule="evenodd" clip-rule="evenodd" fill="#7D7D7D" d="M16.979,127.896c2.03,0.459,4.066,0.891,6.083,1.404
		c0.319,0.081,0.737,0.498,0.782,0.807c0.171,1.165,0.208,2.35,0.294,3.528c-2.099-1.492-4.214-2.964-6.283-4.497
		C17.469,128.852,17.267,128.316,16.979,127.896z"/>
	<g>
		<path fill-rule="evenodd" clip-rule="evenodd" d="M417.188,133.404c0.002,2.131-1.729,3.864-3.863,3.864
			c-2.132,0-3.864-1.733-3.863-3.864c0.001-2.135,1.732-3.865,3.864-3.863C415.459,129.543,417.187,131.27,417.188,133.404z
			 M410.245,133.405c0.001,1.7,1.379,3.079,3.079,3.078c1.701,0,3.08-1.38,3.08-3.079c-0.001-1.701-1.38-3.079-3.081-3.079
			C411.624,130.326,410.245,131.704,410.245,133.405z"/>
		<path fill-rule="evenodd" clip-rule="evenodd" d="M411.631,135.338c0-1.349,0-2.693,0-4.043c0.007,0,0.014,0,0.021,0
			c0.525,0,1.05,0,1.573,0.001c0.203,0,0.404,0.012,0.605,0.05c0.154,0.029,0.306,0.071,0.447,0.146
			c0.226,0.12,0.377,0.302,0.441,0.551c0.064,0.237,0.065,0.477,0.003,0.715c-0.065,0.249-0.217,0.434-0.438,0.564
			c-0.085,0.048-0.175,0.086-0.267,0.117c-0.008,0.002-0.016,0.005-0.024,0.008c0.037,0.014,0.073,0.023,0.106,0.037
			c0.138,0.056,0.244,0.149,0.339,0.261c0.114,0.14,0.203,0.298,0.281,0.459c0.184,0.369,0.367,0.739,0.549,1.11
			c0.003,0.007,0.006,0.014,0.01,0.023c-0.007,0.001-0.015,0.001-0.021,0.001c-0.355,0-0.71,0-1.066,0
			c-0.017,0-0.022-0.005-0.03-0.02c-0.164-0.335-0.328-0.672-0.495-1.007c-0.046-0.095-0.102-0.187-0.165-0.27
			c-0.104-0.133-0.237-0.212-0.402-0.225c-0.141-0.012-0.281-0.01-0.423-0.014c0,0.515,0,1.021,0,1.533
			C412.324,135.338,411.979,135.338,411.631,135.338z M412.675,133.088c0.006,0,0.011,0,0.017,0c0.138,0,0.277,0.001,0.415,0
			c0.104,0,0.208-0.007,0.309-0.037c0.148-0.043,0.247-0.136,0.286-0.286c0.031-0.128,0.031-0.257,0.001-0.386
			c-0.034-0.146-0.125-0.24-0.268-0.286c-0.096-0.029-0.192-0.04-0.291-0.04c-0.151-0.002-0.301-0.001-0.452-0.001
			c-0.006,0-0.011,0.001-0.017,0.001C412.675,132.397,412.675,132.742,412.675,133.088z"/>
	</g>
</g>
</svg>
